<svg width="121" height="35" viewBox="0 0 121 35" fill="none" xmlns="http://www.w3.org/2000/svg">
<path d="M119.236 30.0448C119.236 30.4736 119.147 30.8981 118.976 31.2942C118.805 31.6903 118.553 32.0501 118.236 32.3531C117.92 32.6562 117.544 32.8964 117.13 33.0602C116.716 33.224 116.273 33.308 115.825 33.3076H4.20695C3.30228 33.3085 2.43427 32.9653 1.79382 32.3534C1.15338 31.7415 0.792927 30.9111 0.791748 30.0448V4.02533C0.792927 3.15861 1.15323 2.32777 1.79355 1.71523C2.43387 1.10269 3.30187 0.758526 4.20695 0.758301H115.824C116.272 0.758301 116.716 0.842811 117.129 1.007C117.543 1.1712 117.919 1.41186 118.236 1.71524C118.553 2.01862 118.804 2.37879 118.975 2.77515C119.147 3.17152 119.235 3.59633 119.235 4.02533L119.236 30.0448Z" fill="white"/>
<path d="M115.825 34.0665H4.20695C3.0925 34.0663 2.02366 33.6427 1.23496 32.8887C0.446259 32.1347 0.00212049 31.1119 0 30.0447L0 4.02607C0.00164866 2.95833 0.445494 1.93481 1.23417 1.18005C2.02284 0.425283 3.09195 0.00090121 4.20695 0L115.824 0C116.939 0.00135089 118.008 0.425877 118.796 1.18054C119.585 1.93521 120.029 2.95847 120.031 4.02607V30.0447C120.033 32.263 118.142 34.0665 115.825 34.0665Z" fill="#A6A6A6"/>
<path d="M119.236 30.0448C119.236 30.4736 119.147 30.8981 118.976 31.2942C118.805 31.6903 118.553 32.0501 118.236 32.3531C117.92 32.6562 117.544 32.8964 117.13 33.0602C116.716 33.224 116.273 33.308 115.825 33.3076H4.20695C3.30228 33.3085 2.43427 32.9653 1.79382 32.3534C1.15338 31.7415 0.792927 30.9111 0.791748 30.0448V4.02533C0.792927 3.15861 1.15323 2.32777 1.79355 1.71523C2.43387 1.10269 3.30187 0.758526 4.20695 0.758301H115.824C116.272 0.758301 116.716 0.842811 117.129 1.007C117.543 1.1712 117.919 1.41186 118.236 1.71524C118.553 2.01862 118.804 2.37879 118.975 2.77515C119.147 3.17152 119.235 3.59633 119.235 4.02533L119.236 30.0448Z" fill="black"/>
<path d="M26.8021 16.8541C26.7763 14.1084 29.1497 12.7726 29.2583 12.7104C27.9141 10.8337 25.8306 10.5773 25.0985 10.5569C23.3486 10.3805 21.6512 11.5595 20.7599 11.5595C19.8507 11.5595 18.478 10.5739 16.9986 10.6029C15.0948 10.631 13.3138 11.6865 12.3371 13.3255C10.3212 16.6675 11.8246 21.5787 13.756 24.2801C14.7221 25.6039 15.851 27.0802 17.3286 27.0283C18.7743 26.9721 19.3142 26.1466 21.0588 26.1466C22.7873 26.1466 23.2943 27.0283 24.8013 26.9951C26.3528 26.9721 27.3296 25.6661 28.2619 24.3312C29.3784 22.8157 29.8267 21.3214 29.8445 21.2448C29.8089 21.2328 26.8323 20.1441 26.8021 16.8541ZM23.9553 8.77979C24.7328 7.84867 25.2648 6.5819 25.1171 5.29639C23.9918 5.34409 22.5844 6.0418 21.774 6.95247C21.057 7.75496 20.4165 9.07029 20.5819 10.3072C21.8461 10.3975 23.144 9.69643 23.9553 8.77979Z" fill="white"/>
<path d="M115.825 0H56.0389L79.456 34.0665H115.825C116.94 34.0656 118.008 33.6415 118.797 32.8871C119.586 32.1327 120.03 31.1096 120.032 30.0421V4.02607C120.03 2.9584 119.586 1.93501 118.797 1.1803C118.009 0.42558 116.94 0.00112614 115.825 0Z" fill="url(#paint0_linear_958_190)"/>
<path d="M47.7407 26.8379H45.7204L44.6137 23.5078H40.7671L39.7129 26.8379H37.746L41.5579 15.5008H43.9118L47.7407 26.8379ZM44.2801 22.1107L43.2793 19.1504C43.1735 18.8479 42.9742 18.1357 42.6824 17.0147H42.6468C42.5294 17.4968 42.3417 18.209 42.0846 19.1504L41.1007 22.1107H44.2801ZM57.5246 22.65C57.5246 24.0402 57.1305 25.1392 56.3414 25.9459C55.6351 26.6641 54.757 27.0227 53.71 27.0227C52.5793 27.0227 51.7662 26.6368 51.2724 25.8633V30.1526H49.3758V21.35C49.3758 20.4768 49.3518 19.5814 49.3055 18.6631H50.9735L51.0794 19.9588H51.115C51.7475 18.9825 52.7074 18.4944 53.9955 18.4944C55.0025 18.4944 55.8432 18.8752 56.5158 19.6376C57.1874 20.4018 57.5246 21.4053 57.5246 22.65ZM55.5924 22.7164C55.5924 21.9207 55.4055 21.2648 55.0301 20.7477C54.62 20.2101 54.0694 19.9409 53.379 19.9409C52.9111 19.9409 52.4859 20.0909 52.106 20.3865C51.7252 20.6846 51.4762 21.0739 51.3596 21.5561C51.3076 21.7364 51.278 21.922 51.2715 22.109V23.4729C51.2715 24.0667 51.4619 24.5684 51.8427 24.979C52.2234 25.3879 52.718 25.5933 53.3265 25.5933C54.0409 25.5933 54.5969 25.3283 54.9945 24.8027C55.3931 24.2754 55.5924 23.5802 55.5924 22.7164ZM67.3432 22.65C67.3432 24.0402 66.9491 25.1392 66.16 25.9459C65.4528 26.6641 64.5756 27.0227 63.5276 27.0227C62.397 27.0227 61.5839 26.6368 61.0901 25.8633V30.1526H59.1935V21.35C59.1935 20.4768 59.1695 19.5814 59.1232 18.6631H60.7912L60.8971 19.9588H60.9327C61.5643 18.9825 62.5242 18.4944 63.8132 18.4944C64.8194 18.4944 65.66 18.8752 66.3344 19.6376C67.0051 20.4018 67.3432 21.4053 67.3432 22.65ZM65.4101 22.7164C65.4101 21.9207 65.2223 21.2648 64.8469 20.7477C64.4368 20.2101 63.8879 19.9409 63.1976 19.9409C62.7297 19.9409 62.3044 20.0909 61.9228 20.3865C61.542 20.6846 61.2938 21.0739 61.1773 21.5561C61.1195 21.781 61.0883 21.9642 61.0883 22.109V23.4729C61.0883 24.0667 61.2796 24.5684 61.6586 24.979C62.0393 25.3871 62.534 25.5933 63.1442 25.5933C63.8595 25.5933 64.4155 25.3283 64.8122 24.8027C65.2108 24.2754 65.4101 23.5802 65.4101 22.7164ZM78.3209 23.6577C78.3209 24.6229 77.9686 25.4075 77.2685 26.0132C76.4981 26.6743 75.4226 27.0057 74.0437 27.0057C72.7698 27.0057 71.7485 26.7706 70.9781 26.2995L71.4167 24.7857C72.2485 25.2576 73.1621 25.4927 74.1567 25.4927C74.8719 25.4927 75.4279 25.3377 75.8247 25.0302C76.2223 24.7218 76.4234 24.3094 76.4234 23.7949C76.4234 23.334 76.257 22.9481 75.9305 22.6338C75.6023 22.3203 75.0596 22.0281 74.2972 21.7597C72.2244 21.0194 71.1872 19.9367 71.1872 18.5123C71.1872 17.582 71.5537 16.8204 72.2849 16.2249C73.0162 15.6303 73.9859 15.333 75.1922 15.333C76.2695 15.333 77.1671 15.5128 77.8797 15.8714L77.4037 17.352C76.733 17.0044 75.9759 16.8306 75.129 16.8306C74.46 16.8306 73.9352 16.9882 73.5597 17.3017C73.2439 17.582 73.0838 17.9236 73.0838 18.3291C73.0838 18.7764 73.2662 19.1478 73.6291 19.4392C73.944 19.7075 74.5187 19.9997 75.3496 20.3132C76.3691 20.7068 77.1182 21.1651 77.5977 21.6916C78.0807 22.218 78.3209 22.8749 78.3209 23.6577ZM84.6077 20.0261H82.5172V23.9951C82.5172 25.0046 82.8855 25.5081 83.6238 25.5081C83.9628 25.5081 84.2439 25.4808 84.4663 25.4237L84.5188 26.8029C84.1452 26.9367 83.6532 27.004 83.0438 27.004C82.2948 27.004 81.7094 26.7851 81.2868 26.3472C80.8661 25.9093 80.6543 25.1758 80.6543 24.1433V20.0227H79.4089V18.6597H80.6543V17.1629L82.5172 16.6245V18.6597H84.6077V20.0261ZM94.0216 22.6832C94.0216 23.9397 93.6461 24.9714 92.8971 25.7781C92.1134 26.6087 91.0707 27.0227 89.771 27.0227C88.5167 27.0227 87.5194 26.6249 86.7757 25.8301C86.032 25.0336 85.6602 24.03 85.6602 22.8195C85.6602 21.5527 86.0445 20.5151 86.8104 19.7084C87.5781 18.9008 88.6119 18.497 89.9116 18.497C91.1641 18.497 92.1703 18.8956 92.9318 19.6913C93.6595 20.4631 94.0216 21.4599 94.0216 22.6832ZM92.0555 22.7249C92.0555 21.9761 91.8865 21.3338 91.5476 20.7962C91.1499 20.1471 90.5806 19.8225 89.8431 19.8225C89.0834 19.8225 88.5007 20.1471 88.1039 20.7962C87.7641 21.3338 87.595 21.9872 87.595 22.759C87.595 23.5087 87.7641 24.1527 88.1039 24.6885C88.514 25.3377 89.086 25.6623 89.8271 25.6623C90.5521 25.6623 91.1206 25.3309 91.5316 24.6724C91.8803 24.122 92.0555 23.4754 92.0555 22.7249ZM100.189 20.2604C99.9919 20.2263 99.7918 20.2095 99.5914 20.2101C98.9242 20.2101 98.4082 20.4504 98.0452 20.9342C97.7303 21.3602 97.572 21.8986 97.572 22.5486V26.8379H95.6753V21.2375C95.677 20.3794 95.6586 19.5213 95.6202 18.6639H97.2722L97.3416 20.228H97.3941C97.5951 19.6905 97.91 19.2568 98.3424 18.9323C98.7381 18.6487 99.219 18.4951 99.7133 18.4944C99.8885 18.4944 100.047 18.5063 100.187 18.5276L100.189 20.2604ZM108.672 22.3637C108.676 22.6398 108.653 22.9157 108.602 23.1875H102.912C102.934 23.9951 103.209 24.6136 103.738 25.0395C104.217 25.4195 104.837 25.6103 105.599 25.6103C106.441 25.6103 107.21 25.4825 107.901 25.2244L108.198 26.4843C107.391 26.8217 106.437 26.9895 105.336 26.9895C104.013 26.9895 102.974 26.6164 102.217 25.8718C101.463 25.1264 101.085 24.1246 101.085 22.8697C101.085 21.6379 101.436 20.6114 102.14 19.7927C102.877 18.9186 103.872 18.4816 105.125 18.4816C106.355 18.4816 107.286 18.9186 107.919 19.7927C108.42 20.4853 108.672 21.344 108.672 22.3637ZM106.863 21.8926C106.876 21.3534 106.752 20.8891 106.495 20.4964C106.166 19.9903 105.661 19.7382 104.984 19.7382C104.364 19.7382 103.859 19.9844 103.475 20.4785C103.159 20.8712 102.971 21.3431 102.913 21.8909L106.863 21.8926Z" fill="white"/>
<path d="M40.22 11.493C39.6924 11.493 39.2361 11.4683 38.8562 11.4265V5.94543C39.3875 5.86684 39.9244 5.8281 40.4619 5.82957C42.637 5.82957 43.6387 6.8544 43.6387 8.52497C43.6387 10.452 42.4555 11.493 40.22 11.493ZM40.5384 6.53239C40.2449 6.53239 39.9949 6.54942 39.7876 6.59031V10.7569C39.8997 10.774 40.115 10.7816 40.4175 10.7816C41.8426 10.7816 42.6539 10.0047 42.6539 8.54968C42.6539 7.25224 41.92 6.53239 40.5384 6.53239ZM46.7603 11.5347C45.5345 11.5347 44.7401 10.6581 44.7401 9.46802C44.7401 8.22766 45.5514 7.34339 46.8297 7.34339C48.0378 7.34339 48.85 8.17825 48.85 9.40243C48.85 10.6581 48.0129 11.5347 46.7603 11.5347ZM46.7959 7.99594C46.1225 7.99594 45.691 8.59909 45.691 9.44247C45.691 10.2697 46.1314 10.8728 46.787 10.8728C47.4427 10.8728 47.883 10.2279 47.883 9.42543C47.883 8.60761 47.4516 7.99594 46.7959 7.99594ZM55.8406 7.42602L54.5284 11.4436H53.6735L53.1299 9.69889C52.9948 9.27212 52.8822 8.83909 52.7928 8.40145H52.775C52.7065 8.83932 52.5766 9.27805 52.4387 9.69889L51.8605 11.4436H50.9967L49.7619 7.42602H50.72L51.195 9.33598C51.3071 9.79089 51.4014 10.2202 51.4797 10.6258H51.4975C51.566 10.2875 51.6781 9.86501 51.8427 9.3445L52.4387 7.42688H53.1984L53.7687 9.30361C53.9066 9.75852 54.0186 10.2049 54.1058 10.6266H54.1307C54.1912 10.2134 54.2864 9.7747 54.4154 9.30361L54.9252 7.42688L55.8406 7.42602ZM60.6711 11.4436H59.7388V9.13663C59.7388 8.42615 59.4541 8.07006 58.8928 8.07006C58.3403 8.07006 57.9605 8.52497 57.9605 9.054V11.4436H57.0282V8.57438C57.0282 8.21914 57.0193 7.83834 56.9935 7.42517H57.8137L57.8573 8.04535H57.8831C58.134 7.616 58.6428 7.34339 59.2131 7.34339C60.0938 7.34339 60.672 7.98828 60.672 9.03781L60.6711 11.4436ZM63.2421 11.4436H62.3089V5.58252H63.2421V11.4436ZM66.6413 11.5347C65.4163 11.5347 64.621 10.6581 64.621 9.46802C64.621 8.22766 65.4323 7.34339 66.7098 7.34339C67.9187 7.34339 68.7301 8.17825 68.7301 9.40243C68.731 10.6581 67.8929 11.5347 66.6413 11.5347ZM66.676 7.99594C66.0025 7.99594 65.5711 8.59909 65.5711 9.44247C65.5711 10.2697 66.0123 10.8728 66.6662 10.8728C67.3227 10.8728 67.7622 10.2279 67.7622 9.42543C67.7631 8.60761 67.3325 7.99594 66.676 7.99594ZM72.4059 11.4436L72.3383 10.981H72.3134C72.0287 11.3533 71.6133 11.5347 71.0866 11.5347C70.3349 11.5347 69.8011 11.0304 69.8011 10.3523C69.8011 9.36068 70.6988 8.84784 72.2529 8.84784V8.77373C72.2529 8.2447 71.9602 7.97976 71.382 7.97976C70.9683 7.97976 70.6054 8.07943 70.286 8.27792L70.0965 7.69096C70.4844 7.45925 70.9683 7.34339 71.5368 7.34339C72.6328 7.34339 73.1861 7.89712 73.1861 9.00544V10.4852C73.1861 10.8907 73.2048 11.205 73.2466 11.4444L72.4059 11.4436ZM72.2778 9.44247C71.2423 9.44247 70.7228 9.6827 70.7228 10.2526C70.7228 10.6743 70.9906 10.8805 71.3624 10.8805C71.8366 10.8805 72.2778 10.5337 72.2778 10.0626V9.44247ZM77.7133 11.4436L77.6697 10.7987H77.6439C77.3761 11.286 76.926 11.5347 76.2971 11.5347C75.2856 11.5347 74.5365 10.6828 74.5365 9.48421C74.5365 8.22766 75.3131 7.34254 76.3736 7.34254C76.9349 7.34254 77.3326 7.52399 77.5567 7.88861H77.5754V5.58252H78.5086V10.3608C78.5086 10.7493 78.5184 11.113 78.5433 11.4436H77.7133ZM77.5754 9.07956C77.5754 8.51731 77.1867 8.03769 76.5933 8.03769C75.9021 8.03769 75.4795 8.62464 75.4795 9.45098C75.4795 10.2611 75.9181 10.8157 76.5746 10.8157C77.1609 10.8157 77.5754 10.3276 77.5754 9.74915V9.07956ZM84.4254 11.5347C83.2004 11.5347 82.406 10.6581 82.406 9.46802C82.406 8.22766 83.2173 7.34339 84.4948 7.34339C85.7037 7.34339 86.5151 8.17825 86.5151 9.40243C86.516 10.6581 85.6788 11.5347 84.4254 11.5347ZM84.4601 7.99594C83.7875 7.99594 83.3561 8.59909 83.3561 9.44247C83.3561 10.2697 83.7964 10.8728 84.4512 10.8728C85.1077 10.8728 85.5472 10.2279 85.5472 9.42543C85.549 8.60761 85.1175 7.99594 84.4601 7.99594ZM91.5289 11.4436H90.5957V9.13663C90.5957 8.42615 90.311 8.07006 89.7497 8.07006C89.1972 8.07006 88.8183 8.52497 88.8183 9.054V11.4436H87.8851V8.57438C87.8851 8.21914 87.8762 7.83834 87.8504 7.42517H88.6706L88.7142 8.04535H88.74C88.9899 7.616 89.4997 7.34254 90.069 7.34254C90.9498 7.34254 91.5289 7.98742 91.5289 9.03696V11.4436ZM97.8015 8.09562H96.7758V10.0465C96.7758 10.5431 96.9555 10.791 97.3184 10.791C97.483 10.791 97.6209 10.774 97.7321 10.7493L97.7579 11.4274C97.5773 11.4938 97.3353 11.5271 97.0347 11.5271C96.2998 11.5271 95.8604 11.1386 95.8604 10.1214V8.09562H95.2483V7.42602H95.8604V6.68999L96.7758 6.42505V7.42517H97.8015V8.09562ZM102.737 11.4436H101.806V9.15367C101.806 8.43467 101.522 8.07091 100.96 8.07091C100.477 8.07091 100.026 8.38526 100.026 9.02163V11.4436H99.095V5.58252H100.026V7.99594H100.045C100.339 7.55807 100.764 7.34254 101.307 7.34254C102.194 7.34254 102.737 8.00361 102.737 9.054V11.4436ZM107.794 9.64948H104.996C105.014 10.4102 105.539 10.8396 106.318 10.8396C106.731 10.8396 107.112 10.7731 107.448 10.6496L107.593 11.2698C107.197 11.4351 106.73 11.5177 106.186 11.5177C104.874 11.5177 104.097 10.7237 104.097 9.49273C104.097 8.26088 104.893 7.33487 106.081 7.33487C107.153 7.33487 107.826 8.09562 107.826 9.24483C107.832 9.38045 107.821 9.51627 107.794 9.64948ZM106.939 9.01311C106.939 8.39293 106.612 7.95505 106.016 7.95505C105.481 7.95505 105.057 8.40145 104.997 9.01311H106.939Z" fill="white"/>
<defs>
<linearGradient id="paint0_linear_958_190" x1="88.0344" y1="34.157" x2="88.0344" y2="-88.7033" gradientUnits="userSpaceOnUse">
<stop stop-color="#1A1A1A" stop-opacity="0.1"/>
<stop offset="0.123" stop-color="#212121" stop-opacity="0.151"/>
<stop offset="0.308" stop-color="#353535" stop-opacity="0.227"/>
<stop offset="0.532" stop-color="#575757" stop-opacity="0.318"/>
<stop offset="0.783" stop-color="#858585" stop-opacity="0.421"/>
<stop offset="1" stop-color="#B3B3B3" stop-opacity="0.51"/>
</linearGradient>
</defs>
</svg>
